<svg xmlns="http://www.w3.org/2000/svg" xmlns:xlink="http://www.w3.org/1999/xlink" width="500" zoomAndPan="magnify" viewBox="0 0 375 374.999991" height="500" preserveAspectRatio="xMidYMid meet" version="1.0"><defs><clipPath id="c1b86b33ee"><path d="M 55 11 L 320.359375 11 L 320.359375 363 L 55 363 Z M 55 11 " clip-rule="nonzero"/></clipPath><clipPath id="0186637195"><path d="M 95.828125 168.355469 L 136 168.355469 L 136 206.644531 L 95.828125 206.644531 Z M 95.828125 168.355469 " clip-rule="nonzero"/></clipPath><clipPath id="bec8706500"><path d="M 115.914062 168.355469 L 120.65625 182.980469 L 136 182.980469 L 123.585938 192.019531 L 128.328125 206.644531 L 115.914062 197.605469 L 103.5 206.644531 L 108.242188 192.019531 L 95.828125 182.980469 L 111.171875 182.980469 Z M 115.914062 168.355469 " clip-rule="nonzero"/></clipPath><clipPath id="06935d6d27"><path d="M 249.273438 168.355469 L 289.507812 168.355469 L 289.507812 206.644531 L 249.273438 206.644531 Z M 249.273438 168.355469 " clip-rule="nonzero"/></clipPath><clipPath id="0fd5f7be3e"><path d="M 269.359375 168.355469 L 274.101562 182.980469 L 289.445312 182.980469 L 277.03125 192.019531 L 281.773438 206.644531 L 269.359375 197.605469 L 256.945312 206.644531 L 261.6875 192.019531 L 249.273438 182.980469 L 264.617188 182.980469 Z M 269.359375 168.355469 " clip-rule="nonzero"/></clipPath></defs><path fill="#00025d" d="M 188.832031 18.007812 C 152.550781 17.824219 115.96875 24.621094 79.476562 38.941406 L 69.199219 42.972656 L 69.199219 246.929688 C 69.199219 260.160156 75.101562 270.667969 82.652344 281.929688 C 90.195312 293.195312 100.167969 304.632812 111.414062 315.21875 C 133.910156 336.394531 159.804688 355.605469 188.011719 355.605469 C 216.210938 355.605469 242.105469 336.394531 264.605469 315.21875 C 275.851562 304.625 285.828125 293.195312 293.371094 281.929688 C 300.910156 270.660156 306.824219 260.160156 306.824219 246.929688 L 306.824219 42.890625 L 296.441406 38.90625 C 261.105469 25.332031 225.117188 18.183594 188.832031 18.007812 Z M 188.722656 50.160156 C 217.371094 50.304688 245.851562 55.507812 274.449219 65.371094 L 274.449219 246.929688 C 274.449219 247.378906 272.253906 255.273438 266.46875 263.917969 C 260.683594 272.558594 252.089844 282.539062 242.410156 291.65625 C 223.042969 309.882812 197.625 323.246094 188.011719 323.246094 C 178.386719 323.246094 152.972656 309.890625 133.613281 291.65625 C 123.933594 282.539062 115.335938 272.566406 109.550781 263.917969 C 103.765625 255.28125 101.574219 247.378906 101.574219 246.929688 L 101.574219 65.300781 C 130.992188 54.972656 159.945312 50.011719 188.722656 50.160156 Z M 188.722656 50.160156 " fill-opacity="1" fill-rule="nonzero"/><path fill="#ffffff" d="M 188.8125 23.363281 C 153.222656 23.1875 117.355469 29.871094 81.441406 43.964844 L 74.597656 46.652344 L 74.597656 246.929688 C 74.597656 258.027344 79.882812 268.101562 87.136719 278.925781 C 94.390625 289.757812 104.132812 300.949219 115.121094 311.289062 C 137.09375 331.976562 162.910156 350.207031 188.011719 350.207031 C 213.117188 350.207031 238.929688 331.976562 260.902344 311.289062 C 271.890625 300.941406 281.632812 289.75 288.886719 278.925781 C 296.140625 268.09375 301.425781 258.027344 301.425781 246.929688 L 301.425781 46.59375 L 294.5 43.9375 C 259.714844 30.574219 224.402344 23.539062 188.8125 23.363281 Z M 188.742188 44.796875 C 219.234375 44.949219 249.53125 50.71875 279.847656 61.582031 L 279.847656 246.929688 C 279.847656 249.511719 277.035156 257.839844 270.953125 266.921875 C 264.875 276.003906 256.050781 286.222656 246.113281 295.578125 C 226.226562 314.296875 200.734375 328.636719 188.011719 328.636719 C 175.296875 328.636719 149.792969 314.304688 129.910156 295.578125 C 119.96875 286.214844 111.148438 275.996094 105.066406 266.921875 C 98.988281 257.839844 96.175781 249.511719 96.175781 246.929688 L 96.175781 61.539062 C 127.378906 50.144531 158.164062 44.640625 188.742188 44.796875 Z M 188.742188 44.796875 " fill-opacity="1" fill-rule="nonzero"/><path fill="#00025d" d="M 188.796875 28.71875 C 153.898438 28.550781 118.734375 35.128906 83.410156 48.992188 L 79.988281 50.332031 L 79.988281 246.929688 C 79.988281 255.898438 84.65625 265.535156 91.613281 275.925781 C 98.574219 286.3125 108.082031 297.265625 118.808594 307.367188 C 140.261719 327.5625 165.996094 344.824219 188.003906 344.824219 C 210.011719 344.824219 235.753906 327.5625 257.199219 307.367188 C 267.925781 297.265625 277.433594 286.320312 284.394531 275.925781 C 291.351562 265.535156 296.019531 255.898438 296.019531 246.929688 L 296.019531 50.296875 L 292.5625 48.96875 C 258.316406 35.820312 223.691406 28.894531 188.796875 28.71875 Z M 188.757812 39.4375 C 221.097656 39.601562 253.210938 45.914062 285.238281 57.800781 L 285.238281 246.929688 C 285.238281 251.640625 281.808594 260.40625 275.433594 269.921875 C 269.054688 279.441406 260.011719 289.898438 249.804688 299.507812 C 229.398438 318.71875 203.820312 334.027344 188.003906 334.027344 C 172.1875 334.027344 146.609375 318.71875 126.203125 299.507812 C 116 289.898438 106.953125 279.441406 100.578125 269.921875 C 94.199219 260.40625 90.769531 251.640625 90.769531 246.929688 L 90.769531 57.777344 C 123.757812 45.28125 156.375 39.277344 188.757812 39.4375 Z M 188.757812 39.4375 " fill-opacity="1" fill-rule="nonzero"/><path fill="#5170fc" d="M 85.386719 54.011719 L 85.386719 246.929688 C 85.386719 274.289062 150.1875 339.425781 188.011719 339.425781 C 225.835938 339.425781 290.636719 274.289062 290.636719 246.929688 L 290.636719 54.011719 C 223.210938 28.121094 154.847656 26.75 85.386719 54.011719 Z M 85.386719 54.011719 " fill-opacity="1" fill-rule="nonzero"/><g clip-path="url(#c1b86b33ee)"><path fill="#ffffff" d="M 168.820312 11.105469 C 161.027344 11.089844 155.261719 14.578125 150.59375 19.363281 C 147.214844 22.835938 146.363281 26.632812 146.5625 29.410156 C 146.757812 32.191406 147.9375 34.160156 147.9375 34.160156 L 147.785156 33.851562 C 147.785156 33.851562 149.0625 36.914062 150.441406 40.296875 C 151.816406 43.671875 153.34375 47.542969 153.625 48.441406 C 154.027344 49.714844 155.207031 53.425781 156.800781 57.347656 C 158.40625 61.269531 160.21875 65.328125 162.789062 67.800781 C 164.941406 69.867188 167.480469 70.523438 169.714844 70.632812 C 169.734375 71.019531 169.855469 71.394531 170.058594 71.714844 C 170.058594 71.714844 172.777344 76.066406 173.863281 84.550781 C 173.722656 85.007812 172.984375 87.363281 172.144531 90.878906 C 171.234375 94.714844 170.304688 99.257812 170.488281 102.839844 C 170.726562 107.464844 167.570312 120.046875 174.179688 130.375 C 172.882812 130.949219 171.992188 131.351562 169.609375 132.390625 C 165.925781 134 161.644531 135.785156 160.894531 136.019531 C 160.863281 136.027344 159.875 136.160156 158.722656 136.136719 C 157.566406 136.117188 156.164062 136.027344 154.757812 135.941406 C 153.351562 135.855469 151.953125 135.765625 150.722656 135.765625 C 149.492188 135.765625 148.640625 135.503906 147.152344 136.40625 C 146.222656 136.960938 145.722656 137.613281 145.160156 138.367188 C 144.597656 139.117188 144.066406 139.96875 143.601562 140.839844 C 143.128906 141.710938 142.730469 142.589844 142.449219 143.449219 C 142.167969 144.304688 141.71875 145.007812 142.285156 146.519531 C 142.667969 147.523438 143.195312 148.257812 143.644531 148.769531 C 143.671875 149.191406 143.671875 149.394531 143.785156 150.132812 C 143.980469 151.390625 144.148438 152.839844 145.273438 154.285156 C 146.40625 155.742188 147.867188 156.242188 149.246094 156.578125 C 149.933594 156.746094 150.609375 156.839844 151.296875 156.824219 C 151.988281 156.808594 152.726562 156.84375 153.679688 156.078125 C 153.027344 156.605469 153.210938 156.339844 153.429688 156.285156 C 153.652344 156.226562 154.03125 156.148438 154.496094 156.058594 C 155.382812 155.890625 156.597656 155.664062 157.871094 155.355469 C 156.808594 156.738281 156.414062 157.519531 156.132812 158.039062 C 155.21875 158.414062 152.316406 159.636719 148.921875 162.011719 C 144.957031 164.789062 140.535156 169.039062 140.734375 174.902344 C 140.917969 180.351562 143.839844 186.992188 146.617188 192.609375 C 148.683594 196.785156 150.34375 199.632812 151.257812 201.171875 C 150.378906 202.125 148.347656 204.3125 145.386719 207.730469 C 143.617188 209.773438 141.835938 211.898438 140.445312 213.710938 C 139.75 214.617188 139.152344 215.445312 138.679688 216.191406 C 138.210938 216.9375 137.796875 217.386719 137.640625 218.601562 C 137.410156 220.453125 137.667969 222.75 137.90625 224.90625 C 138.089844 226.558594 138.21875 227.375 138.308594 227.964844 C 137.878906 228.554688 136.503906 230.425781 134.5625 233.414062 C 132.347656 236.828125 129.964844 240.574219 129.210938 243.730469 C 128.214844 247.921875 125.824219 252.132812 116.785156 273.308594 C 107.871094 294.1875 101.609375 310.929688 87.613281 323.617188 C 87.144531 323.574219 87.023438 323.511719 86.335938 323.546875 C 85.648438 323.582031 84.875 323.667969 84.035156 324.003906 C 83.199219 324.339844 82.179688 325.058594 81.730469 326.253906 C 81.6875 326.367188 81.238281 327.320312 80.601562 328.433594 C 79.96875 329.542969 79.117188 330.921875 78.140625 332.328125 C 76.183594 335.152344 73.632812 338.125 71.625 339.441406 C 69.699219 340.699219 66.738281 341.203125 64.074219 341.464844 C 62.738281 341.589844 61.5 341.660156 60.378906 341.84375 C 59.816406 341.933594 59.28125 342.035156 58.691406 342.285156 C 58.101562 342.539062 57.269531 343.023438 56.863281 344.058594 C 56.839844 344.121094 55.140625 347.082031 56.320312 350.1875 C 57.503906 353.292969 60.785156 356.261719 68.199219 359.570312 C 75.75 362.9375 81.757812 363.03125 86.054688 361.898438 C 90.347656 360.765625 92.800781 358.585938 93.800781 357.421875 C 94.46875 356.640625 95.285156 355.71875 96.148438 355.113281 C 97.011719 354.511719 97.722656 354.257812 98.636719 354.441406 C 100.570312 354.828125 104.097656 355.199219 107.667969 355.171875 C 109.453125 355.15625 111.226562 355.039062 112.835938 354.714844 C 114.4375 354.390625 115.976562 353.96875 117.164062 352.550781 C 118.253906 351.234375 118.699219 349.746094 119.265625 347.820312 C 119.828125 345.894531 120.328125 343.644531 120.699219 341.394531 C 121.074219 339.144531 121.320312 336.929688 121.363281 335.039062 C 121.382812 334.089844 121.347656 333.226562 121.226562 332.417969 C 121.101562 331.609375 121.003906 330.820312 120.207031 329.929688 C 119.421875 329.042969 118.691406 328.433594 118.015625 327.871094 C 118.773438 326.613281 120.882812 323.070312 124.679688 317.328125 C 129.078125 310.65625 134.605469 302.859375 138.640625 298.726562 C 143.511719 293.730469 146.484375 285.679688 148.851562 278.003906 C 151.226562 270.328125 153 262.816406 154.285156 259.96875 C 155.359375 257.59375 159.710938 253.953125 163.816406 251.367188 C 165.863281 250.070312 167.824219 248.988281 169.273438 248.222656 C 169.722656 249.617188 170.113281 250.71875 170.902344 253.550781 C 171.484375 255.644531 172.039062 257.867188 172.40625 259.757812 C 172.773438 261.648438 172.863281 263.335938 172.800781 263.722656 C 172.5625 265.253906 171.765625 266.578125 170.804688 267.988281 C 169.839844 269.402344 168.570312 270.863281 168.378906 273.140625 C 168.292969 274.140625 167.632812 278.820312 166.585938 283.199219 C 166.066406 285.394531 165.441406 287.550781 164.785156 289.195312 C 164.132812 290.839844 163.226562 291.886719 163.289062 291.851562 C 161.371094 293.054688 159.320312 294.621094 157.828125 296.757812 C 156.339844 298.894531 155.480469 301.785156 156.34375 304.800781 C 156.808594 306.425781 158.144531 307.226562 159.355469 307.691406 C 160.5625 308.152344 161.90625 308.386719 163.421875 308.53125 C 166.460938 308.820312 170.183594 308.703125 173.96875 308.351562 C 177.753906 308 181.578125 307.421875 184.726562 306.734375 C 186.304688 306.390625 187.707031 306.023438 188.890625 305.621094 C 190.070312 305.222656 190.992188 304.90625 191.90625 304.117188 C 194.605469 301.804688 194.886719 298.332031 195.503906 295.421875 C 195.8125 293.96875 196.128906 292.632812 196.488281 291.71875 C 196.855469 290.804688 197.203125 290.488281 197.308594 290.433594 C 199.242188 289.511719 201.5 288.203125 203.476562 286.59375 C 205.449219 284.992188 207.277344 283.128906 207.769531 280.523438 C 207.960938 279.515625 207.832031 278.765625 207.671875 277.816406 C 207.507812 276.875 207.257812 275.804688 206.941406 274.640625 C 206.300781 272.304688 205.386719 269.5625 204.394531 266.871094 C 203.40625 264.179688 202.34375 261.542969 201.378906 259.429688 C 200.902344 258.375 200.453125 257.445312 200.03125 256.6875 C 199.609375 255.921875 199.378906 255.394531 198.640625 254.71875 C 197.296875 253.488281 196.136719 252.714844 195.300781 252.203125 L 192.125 232.316406 L 193.738281 231.261719 C 194.132812 231.332031 194.167969 231.390625 194.773438 231.425781 C 196.109375 231.496094 197.984375 231.417969 200.324219 230.867188 C 204.878906 229.800781 211.171875 226.898438 218.621094 220.140625 C 220.683594 219.894531 236.898438 217.625 243.527344 204.03125 C 247.089844 196.734375 247.539062 186.324219 247.28125 177.101562 C 247.019531 167.886719 245.902344 159.648438 245.777344 158.132812 C 245.636719 156.453125 245.746094 155.195312 245.746094 153.753906 C 245.746094 152.3125 245.585938 150.667969 244.828125 148.867188 C 243.546875 145.824219 240.496094 138.449219 241.390625 133.347656 C 242.03125 129.707031 242.4375 120.878906 242.085938 110.117188 C 241.761719 100.375 240.714844 89.351562 238.445312 79.878906 C 240.277344 79.941406 242.386719 80.054688 246.929688 80.039062 C 253.085938 80.019531 259.804688 79.890625 263.796875 78.625 C 266.328125 77.824219 269.789062 78.097656 273.371094 78.683594 C 276.957031 79.273438 280.578125 80.160156 283.9375 79.976562 C 287.183594 79.792969 292.757812 78.640625 298.183594 77.148438 C 300.898438 76.40625 303.527344 75.574219 305.734375 74.71875 C 307.941406 73.859375 309.65625 73.15625 310.976562 71.828125 C 311.984375 70.824219 313.65625 70.140625 315.285156 69.46875 C 316.101562 69.128906 316.902344 68.839844 317.753906 68.125 C 318.175781 67.765625 318.640625 67.246094 318.886719 66.507812 C 319.132812 65.777344 319.074219 64.917969 318.84375 64.273438 C 318.484375 63.261719 317.875 61.636719 316.292969 60.609375 C 317.269531 59.726562 317.972656 58.71875 318.273438 57.59375 C 318.667969 56.125 318.273438 54.539062 317.3125 53.425781 C 318.035156 53.019531 318.667969 52.511719 319.171875 51.867188 C 319.722656 51.15625 320.121094 50.242188 320.117188 49.214844 C 320.109375 48.191406 319.628906 47.148438 318.921875 46.433594 C 316.9375 44.449219 313.972656 43.691406 311.097656 44.386719 C 312.234375 42.867188 313.429688 41.300781 314.273438 40.035156 C 314.863281 39.152344 315.351562 38.378906 315.707031 37.660156 C 315.882812 37.300781 316.039062 36.972656 316.15625 36.488281 C 316.214844 36.242188 316.277344 35.953125 316.226562 35.503906 C 316.179688 35.054688 315.953125 34.351562 315.371094 33.851562 C 315.109375 33.625 313.074219 31.59375 310.234375 31.902344 C 307.394531 32.214844 304.46875 34.316406 300.785156 39.382812 C 296.738281 44.957031 292.921875 48.703125 290.011719 51.304688 C 289.988281 50.179688 289.953125 49.035156 289.765625 47.984375 C 289.660156 47.394531 289.53125 46.832031 289.238281 46.230469 C 288.949219 45.617188 288.40625 44.753906 287.226562 44.4375 C 285.082031 43.851562 283.3125 44.871094 281.890625 46.300781 C 280.472656 47.71875 279.375 49.828125 279.179688 52.40625 C 279.058594 53.996094 279.128906 54.671875 279.164062 55.421875 C 278.652344 55.261719 278.117188 55.101562 277.082031 54.59375 C 275.671875 53.910156 273.941406 52.984375 271.714844 53.25 C 268.867188 53.589844 261.585938 54.753906 254.078125 53.722656 C 248.375 52.941406 245.09375 53.285156 243.113281 53.617188 C 242.914062 53.097656 242.894531 52.996094 242.621094 52.34375 C 242.289062 51.558594 241.9375 50.75 241.550781 50.03125 C 241.363281 49.671875 241.171875 49.335938 240.925781 49 C 240.6875 48.660156 240.503906 48.28125 239.683594 47.875 C 239 47.535156 238.980469 47.621094 238.699219 47.566406 C 238.417969 47.507812 238.09375 47.453125 237.699219 47.390625 C 236.917969 47.269531 235.894531 47.136719 234.671875 47.015625 C 232.222656 46.777344 228.996094 46.574219 225.539062 46.617188 C 218.628906 46.691406 210.769531 47.394531 206.195312 51.867188 C 202.511719 55.472656 199.691406 58.675781 197.710938 59.730469 C 196.71875 60.257812 196.136719 60.351562 195.300781 60.105469 C 194.746094 59.941406 193.957031 59.402344 193.066406 58.636719 C 196.039062 54.566406 197.140625 49.265625 197.410156 44.140625 C 197.71875 38.230469 196.875 32.472656 195.875 28.640625 C 194.886719 24.832031 193.339844 21.464844 190.402344 18.746094 C 187.460938 16.03125 183.324219 14.050781 177.292969 12.355469 C 174.242188 11.503906 171.414062 11.113281 168.820312 11.105469 Z M 168.746094 15.609375 C 170.902344 15.667969 173.3125 16.046875 176.074219 16.820312 C 181.726562 18.402344 185.136719 20.152344 187.292969 22.148438 C 189.460938 24.144531 190.554688 26.457031 191.433594 29.808594 C 192.304688 33.140625 193.101562 38.59375 192.820312 43.902344 C 192.542969 49.203125 191.152344 54.257812 188.277344 57.203125 C 187.425781 58.066406 187.390625 59.445312 188.199219 60.351562 C 190.121094 62.523438 191.976562 63.949219 194.035156 64.546875 C 196.09375 65.152344 198.203125 64.730469 199.917969 63.816406 C 203.355469 61.988281 205.976562 58.578125 209.457031 55.175781 C 212.050781 52.640625 219.136719 51.316406 225.617188 51.242188 C 228.855469 51.207031 231.9375 51.394531 234.242188 51.621094 C 235.394531 51.734375 236.351562 51.859375 237.019531 51.957031 C 237.179688 51.984375 237.257812 52 237.382812 52.019531 C 237.425781 52.089844 237.441406 52.113281 237.488281 52.195312 C 237.75 52.6875 238.070312 53.40625 238.367188 54.121094 C 238.957031 55.550781 239.449219 56.941406 239.449219 56.941406 C 239.859375 58.101562 241.109375 58.742188 242.289062 58.390625 C 242.289062 58.390625 245.867188 57.265625 253.464844 58.304688 C 261.835938 59.457031 269.824219 58.128906 272.269531 57.839844 C 272.691406 57.792969 273.757812 58.113281 275.074219 58.753906 C 276.386719 59.394531 277.84375 60.351562 279.9375 60.351562 C 280.753906 60.351562 281.714844 60.28125 282.609375 59.519531 C 283.5 58.761719 283.734375 57.671875 283.78125 56.984375 C 283.875 55.613281 283.664062 54.558594 283.804688 52.757812 C 283.914062 51.289062 284.535156 50.207031 285.175781 49.5625 C 285.214844 49.519531 285.238281 49.53125 285.273438 49.496094 C 285.351562 50.171875 285.421875 50.894531 285.425781 51.761719 C 285.449219 54.015625 285.257812 56.28125 285.257812 56.28125 C 285.152344 57.554688 286.09375 58.671875 287.375 58.777344 C 287.9375 58.824219 288.5 58.664062 288.957031 58.320312 C 288.957031 58.320312 297.3125 52.0625 304.546875 42.101562 C 307.871094 37.519531 310.007812 36.585938 310.746094 36.5 C 310.871094 36.488281 310.914062 36.542969 311.007812 36.542969 C 310.816406 36.859375 310.710938 37.0625 310.449219 37.464844 C 309.375 39.074219 307.78125 41.222656 306.15625 43.347656 C 302.894531 47.585938 299.484375 51.734375 299.484375 51.734375 C 298.675781 52.71875 298.816406 54.179688 299.800781 54.988281 C 300.625 55.660156 301.796875 55.691406 302.648438 55.058594 C 302.648438 55.058594 304.609375 53.59375 306.824219 52.070312 C 307.933594 51.304688 309.101562 50.523438 310.09375 49.917969 C 311.082031 49.316406 312.054688 48.878906 312.023438 48.886719 C 313.121094 48.570312 314.230469 48.886719 315.046875 49.371094 C 314.730469 49.546875 314.300781 49.738281 313.699219 49.828125 C 311.105469 50.214844 309.042969 51.832031 307.183594 53.257812 C 305.328125 54.683594 303.886719 56.042969 303.886719 56.042969 C 302.957031 56.921875 302.914062 58.382812 303.792969 59.308594 C 304.566406 60.125 305.820312 60.265625 306.753906 59.648438 C 308.9375 58.183594 310.878906 57.277344 312.265625 56.863281 C 312.890625 56.675781 313.332031 56.667969 313.648438 56.660156 C 313.472656 56.96875 313.113281 57.449219 312.03125 58.007812 C 310.023438 59.058594 308.757812 60.132812 307.976562 61.054688 C 307.582031 61.511719 307.316406 61.933594 307.140625 62.269531 C 306.957031 62.613281 306.824219 63.035156 306.824219 63.035156 C 306.484375 64.265625 307.21875 65.539062 308.449219 65.875 C 309.039062 66.035156 309.664062 65.960938 310.199219 65.65625 C 312.804688 64.175781 313.738281 64.390625 313.796875 64.414062 C 313.816406 64.421875 313.984375 64.820312 314.0625 64.941406 C 313.851562 65.046875 313.851562 65.058594 313.550781 65.1875 C 312.066406 65.796875 309.691406 66.597656 307.738281 68.554688 C 307.582031 68.707031 306.0625 69.636719 304.082031 70.410156 C 302.101562 71.183594 299.582031 71.976562 296.984375 72.695312 C 291.78125 74.121094 286.058594 75.230469 283.703125 75.359375 C 281.457031 75.484375 277.914062 74.738281 274.144531 74.121094 C 270.371094 73.5 266.28125 72.996094 262.421875 74.21875 C 260.03125 74.976562 252.964844 75.394531 246.9375 75.414062 C 240.90625 75.433594 235.660156 75.203125 235.660156 75.203125 C 234.382812 75.148438 233.304688 76.136719 233.25 77.410156 C 233.234375 77.65625 233.265625 77.902344 233.335938 78.132812 C 235.96875 87.546875 237.144531 99.734375 237.496094 110.269531 C 237.839844 120.808594 237.320312 129.960938 236.871094 132.554688 C 235.582031 139.90625 239.386719 147.792969 240.59375 150.667969 C 241.082031 151.828125 241.152344 152.59375 241.152344 153.761719 C 241.152344 154.925781 241.023438 156.464844 241.199219 158.527344 C 241.382812 160.746094 242.445312 168.316406 242.691406 177.242188 C 242.9375 186.171875 242.226562 196.230469 239.402344 202.015625 C 233.707031 213.683594 217.40625 215.679688 217.40625 215.679688 C 216.914062 215.734375 216.445312 215.945312 216.078125 216.285156 C 208.84375 222.988281 203.101562 225.484375 199.292969 226.378906 C 197.386719 226.820312 195.960938 226.871094 195.046875 226.820312 C 194.132812 226.769531 193.894531 226.671875 193.894531 226.671875 C 193.234375 226.46875 192.523438 226.566406 191.949219 226.945312 L 188.371094 229.28125 C 187.601562 229.777344 187.203125 230.679688 187.351562 231.585938 L 190.933594 254.007812 C 191.046875 254.71875 191.492188 255.335938 192.125 255.679688 C 192.125 255.679688 193.9375 256.671875 195.546875 258.15625 C 195.277344 257.910156 195.671875 258.339844 196.003906 258.9375 C 196.332031 259.535156 196.742188 260.375 197.191406 261.359375 C 198.082031 263.335938 199.125 265.894531 200.078125 268.496094 C 201.035156 271.097656 201.914062 273.746094 202.503906 275.890625 C 202.800781 276.957031 203.019531 277.90625 203.136719 278.617188 C 203.257812 279.328125 203.214844 279.875 203.25 279.6875 C 203.125 280.347656 202.148438 281.757812 200.578125 283.03125 C 199.011719 284.304688 196.988281 285.492188 195.335938 286.277344 C 193.65625 287.082031 192.785156 288.589844 192.207031 290.03125 C 191.636719 291.472656 191.308594 293 190.992188 294.488281 C 190.359375 297.460938 189.480469 300.140625 188.902344 300.625 C 189.003906 300.539062 188.355469 300.949219 187.414062 301.265625 C 186.472656 301.582031 185.207031 301.917969 183.746094 302.242188 C 180.828125 302.882812 177.144531 303.4375 173.546875 303.773438 C 169.945312 304.105469 166.402344 304.195312 163.859375 303.957031 C 162.585938 303.835938 161.5625 303.613281 161.011719 303.402344 C 160.835938 303.332031 160.828125 303.316406 160.78125 303.289062 C 160.441406 301.828125 160.753906 300.6875 161.625 299.4375 C 162.558594 298.101562 164.140625 296.808594 165.742188 295.808594 C 167.5625 294.671875 168.289062 292.941406 169.082031 290.953125 C 169.875 288.964844 170.535156 286.636719 171.085938 284.3125 C 172.1875 279.664062 172.847656 275.207031 172.984375 273.5625 C 173.011719 273.199219 173.609375 272.128906 174.628906 270.625 C 175.648438 269.121094 176.949219 267.132812 177.367188 264.480469 C 177.636719 262.773438 177.347656 261.023438 176.949219 258.929688 C 176.546875 256.835938 175.964844 254.527344 175.359375 252.355469 C 174.15625 248.011719 172.871094 244.222656 172.871094 244.222656 C 172.460938 243.015625 171.148438 242.367188 169.9375 242.777344 C 169.855469 242.804688 169.777344 242.839844 169.691406 242.875 C 169.691406 242.875 165.730469 244.742188 161.351562 247.5 C 156.976562 250.253906 152.078125 253.664062 150.066406 258.113281 C 148.269531 262.09375 146.734375 269.226562 144.429688 276.691406 C 142.125 284.15625 139.039062 291.742188 135.320312 295.550781 C 130.757812 300.226562 125.277344 308.070312 120.8125 314.832031 C 116.351562 321.59375 112.96875 327.25 112.96875 327.25 C 112.320312 328.332031 112.660156 329.734375 113.726562 330.402344 C 113.726562 330.402344 115.105469 331.300781 116.566406 332.890625 C 116.589844 332.945312 116.628906 333.015625 116.652344 333.175781 C 116.714844 333.578125 116.75 334.230469 116.730469 335.003906 C 116.699219 336.558594 116.476562 338.617188 116.132812 340.699219 C 115.789062 342.777344 115.316406 344.886719 114.824219 346.574219 C 114.332031 348.261719 113.617188 349.632812 113.609375 349.644531 C 113.691406 349.546875 113.054688 350.011719 111.914062 350.242188 C 110.777344 350.476562 109.230469 350.59375 107.632812 350.609375 C 104.433594 350.636719 100.914062 350.238281 99.542969 349.960938 C 97.152344 349.484375 95.007812 350.328125 93.5 351.382812 C 91.992188 352.429688 90.941406 353.707031 90.285156 354.476562 C 89.960938 354.855469 88.121094 356.632812 84.875 357.492188 C 81.625 358.347656 76.839844 358.433594 70.078125 355.410156 C 63.175781 352.332031 61.085938 349.792969 60.636719 348.605469 C 60.292969 347.699219 60.503906 347.269531 60.847656 346.53125 C 60.945312 346.511719 60.945312 346.496094 61.09375 346.476562 C 61.839844 346.355469 63.082031 346.273438 64.503906 346.132812 C 67.34375 345.855469 71.003906 345.421875 74.140625 343.382812 C 77.191406 341.394531 79.8125 338.097656 81.933594 335.027344 C 82.996094 333.492188 83.910156 332.015625 84.605469 330.792969 C 85.203125 329.746094 85.554688 329.03125 85.84375 328.347656 C 85.976562 328.304688 86.230469 328.25 86.558594 328.226562 C 87.328125 328.1875 88.128906 328.3125 88.128906 328.3125 C 88.816406 328.425781 89.511719 328.226562 90.039062 327.765625 C 105.523438 314.101562 112.027344 296.265625 121.03125 275.1875 C 130.042969 254.078125 132.503906 249.925781 133.703125 244.863281 C 134.054688 243.394531 136.296875 239.28125 138.433594 235.992188 C 140.566406 232.703125 142.566406 229.976562 142.566406 229.976562 C 142.933594 229.484375 143.082031 228.867188 142.988281 228.261719 C 142.988281 228.261719 142.722656 226.511719 142.496094 224.457031 C 142.273438 222.40625 142.140625 219.882812 142.222656 219.234375 C 142.144531 219.832031 142.238281 219.265625 142.582031 218.714844 C 142.925781 218.167969 143.460938 217.421875 144.109375 216.578125 C 145.402344 214.890625 147.144531 212.8125 148.878906 210.808594 C 152.351562 206.792969 155.796875 203.082031 155.796875 203.082031 C 156.5 202.324219 156.613281 201.183594 156.070312 200.300781 C 156.070312 200.300781 153.433594 196.019531 150.765625 190.621094 C 148.09375 185.214844 145.484375 178.550781 145.359375 174.804688 C 145.246094 171.480469 148.148438 168.253906 151.574219 165.855469 C 155.003906 163.460938 158.515625 162.089844 158.515625 162.089844 C 159.042969 161.886719 159.480469 161.492188 159.738281 160.984375 C 159.738281 160.984375 160.4375 159.644531 161.554688 158.195312 C 162.679688 156.746094 164.253906 155.410156 165.230469 155.171875 C 166.375 154.898438 168.351562 155.25 169.953125 155.832031 C 171.554688 156.417969 172.707031 157.097656 172.707031 157.097656 C 173.066406 157.308594 173.46875 157.414062 173.882812 157.414062 L 181.824219 157.414062 C 183.078125 157.414062 184.097656 156.421875 184.136719 155.171875 L 184.449219 144.894531 C 184.484375 143.792969 183.730469 142.824219 182.65625 142.570312 C 182.65625 142.570312 181.355469 142.261719 179.765625 142.359375 C 178.175781 142.464844 175.894531 143.035156 174.5625 145.15625 C 174.804688 144.769531 174.183594 145.421875 173.082031 145.808594 C 171.976562 146.195312 170.496094 146.554688 169.039062 146.835938 C 166.136719 147.390625 163.375 147.660156 163.375 147.660156 C 162.65625 147.730469 162.011719 148.128906 161.632812 148.742188 C 161.363281 149.175781 159.226562 150.324219 156.898438 150.886719 C 155.742188 151.164062 154.574219 151.375 153.609375 151.566406 C 153.125 151.65625 152.695312 151.742188 152.296875 151.847656 C 151.894531 151.945312 151.636719 151.832031 150.785156 152.515625 C 151.355469 152.058594 151.390625 152.25 151.214844 152.25 C 151.039062 152.25 150.679688 152.21875 150.320312 152.128906 C 149.597656 151.953125 148.878906 151.445312 148.921875 151.496094 C 148.957031 151.539062 148.5 150.429688 148.351562 149.457031 C 148.199219 148.496094 148.164062 147.679688 148.164062 147.679688 C 148.136719 147.027344 147.832031 146.414062 147.332031 146 C 147.332031 146 147.039062 145.59375 146.8125 145.234375 C 146.8125 145.136719 146.792969 145.078125 146.839844 144.9375 C 147.003906 144.453125 147.3125 143.757812 147.679688 143.070312 C 148.042969 142.378906 148.480469 141.699219 148.867188 141.175781 C 149.160156 140.785156 149.316406 140.65625 149.386719 140.585938 C 149.5625 140.574219 150.097656 140.433594 150.722656 140.433594 C 151.734375 140.433594 153.078125 140.515625 154.476562 140.601562 C 155.875 140.6875 157.328125 140.785156 158.652344 140.804688 C 159.972656 140.828125 161.0625 140.863281 162.277344 140.480469 C 164.019531 139.941406 167.761719 138.296875 171.464844 136.679688 C 175.175781 135.054688 178.570312 133.535156 178.570312 133.535156 C 179.738281 133.015625 180.257812 131.644531 179.738281 130.480469 C 179.652344 130.28125 179.535156 130.101562 179.402344 129.9375 C 172.175781 121.320312 175.476562 109.800781 175.113281 102.652344 C 174.984375 100.164062 175.773438 95.671875 176.652344 91.996094 C 177.53125 88.320312 178.4375 85.394531 178.4375 85.394531 C 178.535156 85.085938 178.5625 84.753906 178.527344 84.433594 C 177.621094 76.820312 175.675781 72.714844 174.753906 70.949219 L 176.25 69.269531 C 177.101562 68.3125 177.011719 66.851562 176.0625 66.007812 C 175.4375 65.453125 174.558594 65.277344 173.761719 65.550781 C 173.761719 65.550781 168.6875 67.085938 166.011719 64.511719 C 164.6875 63.246094 162.613281 59.359375 161.097656 55.648438 C 159.585938 51.9375 158.433594 48.332031 158.046875 47.109375 C 157.546875 45.511719 156.113281 41.992188 154.726562 38.59375 C 153.34375 35.199219 152.058594 32.113281 152.058594 32.113281 C 152.015625 32.007812 151.957031 31.902344 151.902344 31.804688 C 151.902344 31.804688 151.296875 30.820312 151.179688 29.128906 C 151.058594 27.433594 151.382812 25.234375 153.914062 22.632812 C 158.117188 18.273438 162.277344 15.449219 168.746094 15.609375 Z M 179.765625 146.992188 L 179.589844 152.746094 L 174.375 152.746094 C 173.933594 152.5 173.171875 152.039062 171.554688 151.445312 C 171.261719 151.34375 170.875 151.277344 170.558594 151.171875 C 171.941406 150.890625 173.363281 150.574219 174.632812 150.132812 C 176.105469 149.613281 177.480469 149.199219 178.5 147.566406 C 178.699219 147.242188 179.148438 147.074219 179.765625 146.992188 Z M 179.765625 146.992188 " fill-opacity="1" fill-rule="nonzero"/></g><path fill="#00025d" d="M 189.9375 58.816406 C 196.945312 66.761719 200.683594 60.53125 207.847656 53.523438 C 215.007812 46.515625 237.75 49.476562 238.683594 49.941406 C 239.617188 50.402344 241.644531 56.167969 241.644531 56.167969 C 241.644531 56.167969 245.847656 54.925781 253.789062 56.011719 C 261.730469 57.101562 269.359375 55.859375 272.007812 55.550781 C 274.660156 55.242188 277.617188 58.039062 279.953125 58.039062 C 282.285156 58.039062 281.195312 56.640625 281.511719 52.589844 C 281.828125 48.542969 284.933594 46.207031 286.648438 46.671875 C 288.363281 47.136719 287.585938 56.484375 287.585938 56.484375 C 287.585938 56.484375 295.683594 50.410156 302.691406 40.753906 C 309.699219 31.09375 312.8125 34.679688 313.902344 35.613281 C 314.992188 36.550781 301.277344 53.207031 301.277344 53.207031 C 301.277344 53.207031 309.21875 47.289062 311.398438 46.671875 C 313.578125 46.046875 315.914062 46.671875 317.316406 48.070312 C 318.714844 49.46875 317.164062 51.65625 314.050781 52.121094 C 310.9375 52.582031 305.488281 57.730469 305.488281 57.730469 C 310.164062 54.613281 313.894531 53.679688 315.300781 54.613281 C 316.707031 55.550781 316.699219 58.199219 313.121094 60.0625 C 309.535156 61.933594 309.074219 63.648438 309.074219 63.648438 C 314.835938 60.378906 315.925781 62.867188 316.707031 65.046875 C 317.488281 67.226562 312.347656 67.226562 309.390625 70.183594 C 306.429688 73.144531 289.453125 77.347656 283.851562 77.65625 C 278.242188 77.964844 269.527344 74.386719 263.144531 76.410156 C 256.761719 78.4375 235.582031 77.5 235.582031 77.5 C 241.03125 96.964844 240.257812 126.710938 239.167969 132.941406 C 238.078125 139.167969 241.503906 146.800781 242.753906 149.761719 C 243.996094 152.71875 243.21875 154.589844 243.535156 158.320312 C 243.851562 162.054688 247.890625 189.929688 241.507812 203.011719 C 235.125 216.09375 217.679688 217.964844 217.679688 217.964844 C 202.730469 231.824219 193.234375 228.867188 193.234375 228.867188 L 189.648438 231.199219 L 193.234375 253.621094 C 193.234375 253.621094 195.257812 254.710938 197.128906 256.425781 C 198.996094 258.140625 206.160156 276.824219 205.535156 280.09375 C 204.910156 283.363281 199.925781 286.628906 196.347656 288.34375 C 192.769531 290.0625 193.699219 299.558594 190.429688 302.363281 C 187.160156 305.167969 159.914062 308.792969 158.59375 304.167969 C 157.273438 299.542969 161.019531 296.019531 164.539062 293.8125 C 168.0625 291.613281 170.488281 275.972656 170.707031 273.332031 C 170.921875 270.6875 174.453125 268.261719 175.113281 264.082031 C 175.773438 259.898438 170.707031 244.917969 170.707031 244.917969 C 170.707031 244.917969 155.289062 252.1875 152.203125 259.011719 C 149.121094 265.839844 145.597656 288.304688 137.007812 297.109375 C 128.398438 305.9375 114.957031 328.398438 114.957031 328.398438 C 114.957031 328.398438 116.722656 329.5 118.480469 331.484375 C 120.238281 333.464844 117.601562 348.4375 115.394531 351.078125 C 113.1875 353.722656 102.398438 352.84375 99.101562 352.183594 C 95.796875 351.523438 93.371094 354.382812 92.050781 355.929688 C 90.730469 357.46875 83.460938 363.859375 69.148438 357.46875 C 54.839844 351.078125 58.414062 346.460938 59.019531 344.914062 C 59.667969 343.277344 67.828125 344.699219 72.894531 341.394531 C 77.964844 338.089844 83.25 328.839844 83.910156 327.082031 C 84.570312 325.320312 88.535156 325.980469 88.535156 325.980469 C 103.507812 312.765625 109.898438 295.367188 118.929688 274.222656 C 127.960938 253.082031 130.378906 248.898438 131.484375 244.273438 C 132.585938 239.648438 140.734375 228.554688 140.734375 228.554688 C 140.734375 228.554688 139.644531 221.394531 139.953125 218.898438 C 140.261719 216.410156 154.125 201.460938 154.125 201.460938 C 154.125 201.460938 143.375 184.019531 143.066406 174.832031 C 142.757812 165.644531 157.703125 159.882812 157.703125 159.882812 C 157.703125 159.882812 160.816406 153.808594 164.710938 152.875 C 168.605469 151.9375 173.898438 155.054688 173.898438 155.054688 L 181.839844 155.054688 L 182.148438 144.777344 C 182.148438 144.777344 178.101562 143.839844 176.539062 146.335938 C 174.980469 148.824219 163.613281 149.921875 163.613281 149.921875 C 161.589844 153.191406 153.027344 153.660156 152.246094 154.28125 C 151.46875 154.90625 148.199219 154.28125 147.109375 152.882812 C 146.019531 151.480469 145.863281 147.742188 145.863281 147.742188 C 145.863281 147.742188 144.929688 146.960938 144.464844 145.71875 C 144.003906 144.472656 146.800781 139.335938 148.359375 138.402344 C 149.921875 137.464844 159.109375 139.027344 161.597656 138.246094 C 164.085938 137.464844 177.636719 131.394531 177.636719 131.394531 C 169.539062 121.734375 173.125 108.816406 172.808594 102.742188 C 172.496094 96.667969 176.230469 84.679688 176.230469 84.679688 C 175.140625 75.492188 172.027344 70.507812 172.027344 70.507812 L 174.515625 67.703125 C 174.515625 67.703125 168.289062 69.882812 164.394531 66.140625 C 160.5 62.402344 156.605469 50.257812 155.832031 47.769531 C 155.050781 45.28125 149.914062 32.972656 149.914062 32.972656 C 149.914062 32.972656 146.328125 27.054688 152.246094 20.980469 C 158.164062 14.90625 165.019531 11.324219 176.695312 14.597656 C 188.375 17.867188 191.800781 22.070312 193.667969 29.234375 C 195.539062 36.394531 196.9375 51.65625 189.9375 58.816406 Z M 189.9375 58.816406 " fill-opacity="1" fill-rule="nonzero"/><path fill="#5170fc" d="M 242.648438 72.292969 C 242.648438 72.292969 241.542969 62.824219 237.691406 51.921875 C 237.691406 51.921875 217.984375 51.148438 212.253906 53.90625 C 206.527344 56.660156 203.996094 61.722656 203.996094 61.722656 C 203.996094 61.722656 208.621094 57.207031 214.785156 55.445312 C 220.949219 53.679688 235.476562 54.507812 235.476562 54.507812 C 235.476562 54.507812 240.664062 64.25 242.648438 72.292969 Z M 242.648438 72.292969 " fill-opacity="1" fill-rule="nonzero"/><path fill="#5170fc" d="M 209.554688 157.835938 C 209.554688 157.835938 177.566406 155.363281 151.09375 167.507812 C 151.09375 167.507812 170.558594 180.433594 185.199219 208.304688 C 185.199219 208.304688 175.542969 184.636719 167.914062 173.265625 C 167.914062 173.265625 173.832031 174.046875 181.929688 182.921875 L 173.207031 169.53125 L 196.875 169.222656 L 178.03125 164.550781 C 178.035156 164.550781 184.390625 161.253906 209.554688 157.835938 Z M 209.554688 157.835938 " fill-opacity="1" fill-rule="nonzero"/><path fill="#5170fc" d="M 86.398438 329.515625 C 96.753906 334.359375 111.722656 330.175781 111.722656 330.175781 C 111.722656 330.175781 115.90625 332.820312 116.132812 333.921875 C 116.351562 335.027344 115.359375 348.015625 113.046875 348.789062 C 110.734375 349.5625 98.40625 348.675781 98.40625 348.675781 L 99.613281 346.144531 C 91.136719 346.476562 85.632812 357.597656 80.507812 357.378906 C 75.390625 357.160156 67.84375 352.867188 67.84375 352.867188 C 67.84375 352.867188 66.40625 350.390625 64.046875 350.0625 C 61.675781 349.730469 62.507812 350.835938 62.507812 350.835938 C 62.507812 350.835938 61.460938 350.390625 60.523438 349.351562 C 59.589844 348.304688 60.636719 345.992188 60.636719 345.992188 C 60.636719 345.992188 74.503906 349.996094 86.398438 329.515625 Z M 86.398438 329.515625 " fill-opacity="1" fill-rule="nonzero"/><path fill="#5170fc" d="M 175.851562 270.597656 C 175.851562 270.597656 173.363281 272.621094 173.363281 275.425781 C 173.363281 278.230469 169.238281 292.863281 167.753906 294.890625 C 166.277344 296.914062 162.144531 297.695312 161.371094 300.105469 C 160.589844 302.515625 160.28125 303.375 161.292969 303.765625 C 162.304688 304.152344 185.039062 302.128906 187.6875 300.265625 C 190.335938 298.398438 190.675781 287.566406 192.875 285.695312 C 195.074219 283.824219 201.464844 281.183594 201.90625 278.644531 C 202.351562 276.113281 197.28125 261.03125 195.519531 259.710938 C 193.753906 258.386719 190.675781 258.605469 190.675781 258.605469 C 190.675781 258.605469 189.902344 268.515625 186.597656 271.488281 C 183.292969 274.464844 176.027344 291.972656 175.035156 292.519531 C 174.050781 293.070312 175.851562 270.597656 175.851562 270.597656 Z M 175.851562 270.597656 " fill-opacity="1" fill-rule="nonzero"/><path fill="#5170fc" d="M 217.027344 214.695312 C 251.660156 211.117188 240.117188 162.800781 240.117188 162.800781 C 240.117188 162.800781 245.121094 207.539062 217.027344 214.695312 Z M 217.027344 214.695312 " fill-opacity="1" fill-rule="nonzero"/><path fill="#5170fc" d="M 117.296875 286.328125 C 117.296875 286.328125 133.183594 252.378906 136.144531 249.890625 C 139.101562 247.402344 153.117188 235.09375 153.117188 235.09375 L 163.703125 237.117188 C 163.703125 237.117188 151.25 231.042969 149.378906 228.710938 C 147.507812 226.378906 147.820312 219.679688 148.136719 218.125 C 148.445312 216.566406 157.011719 204.578125 157.011719 204.578125 C 157.011719 204.578125 143.777344 217.035156 143.621094 219.375 C 143.46875 221.710938 144.558594 229.5 144.558594 229.5 C 144.558594 229.5 134.433594 241.335938 133.808594 245.066406 C 133.183594 248.800781 117.296875 286.328125 117.296875 286.328125 Z M 117.296875 286.328125 " fill-opacity="1" fill-rule="nonzero"/><path fill="#ffffff" d="M 118.417969 75.835938 C 102.890625 75.835938 90.25 88.472656 90.25 103.992188 C 90.25 119.519531 102.890625 132.160156 118.417969 132.160156 C 133.945312 132.160156 146.582031 119.519531 146.582031 103.992188 C 146.582031 88.472656 133.945312 75.835938 118.417969 75.835938 Z M 118.417969 80.460938 C 131.441406 80.460938 141.957031 90.96875 141.957031 103.992188 C 141.957031 117.019531 131.449219 127.535156 118.417969 127.535156 C 105.390625 127.535156 94.875 117.027344 94.875 103.992188 C 94.882812 90.976562 105.390625 80.460938 118.417969 80.460938 Z M 118.417969 80.460938 " fill-opacity="1" fill-rule="nonzero"/><path fill="#00025d" d="M 144.269531 104 C 144.269531 118.277344 132.691406 129.855469 118.417969 129.855469 C 104.140625 129.855469 92.5625 118.277344 92.5625 104 C 92.5625 89.726562 104.140625 78.148438 118.417969 78.148438 C 132.691406 78.148438 144.269531 89.726562 144.269531 104 Z M 144.269531 104 " fill-opacity="1" fill-rule="nonzero"/><path fill="#5170fc" d="M 135.355469 89.0625 C 137.421875 92.550781 138.511719 96.523438 138.511719 100.578125 C 138.511719 113.046875 128.40625 123.15625 115.933594 123.15625 C 109.453125 123.15625 103.289062 120.371094 99 115.507812 C 103.066406 122.367188 110.453125 126.578125 118.429688 126.578125 C 130.898438 126.578125 141.007812 116.46875 141.007812 104 C 141 98.496094 138.992188 93.191406 135.355469 89.0625 Z M 135.355469 89.0625 " fill-opacity="1" fill-rule="nonzero"/><g clip-path="url(#0186637195)"><g clip-path="url(#bec8706500)"><path fill="#00025d" d="M 95.828125 168.355469 L 136.058594 168.355469 L 136.058594 206.644531 L 95.828125 206.644531 Z M 95.828125 168.355469 " fill-opacity="1" fill-rule="nonzero"/></g></g><g clip-path="url(#06935d6d27)"><g clip-path="url(#0fd5f7be3e)"><path fill="#00025d" d="M 249.273438 168.355469 L 289.507812 168.355469 L 289.507812 206.644531 L 249.273438 206.644531 Z M 249.273438 168.355469 " fill-opacity="1" fill-rule="nonzero"/></g></g></svg>